<?xml version="1.0" standalone="no"?>
<!DOCTYPE svg PUBLIC "-//W3C//DTD SVG 20010904//EN"
 "http://www.w3.org/TR/2001/REC-SVG-20010904/DTD/svg10.dtd">
<svg version="1.0" xmlns="http://www.w3.org/2000/svg"
 width="500.000000pt" height="500.000000pt" viewBox="0 0 500.000000 500.000000"
 preserveAspectRatio="xMidYMid meet">

<g transform="translate(0.000000,500.000000) scale(0.100000,-0.100000)"
fill="#000000" stroke="none">
<path d="M0 2500 l0 -2500 2500 0 2500 0 0 2500 0 2500 -2500 0 -2500 0 0
-2500z m1534 804 c12 -4 225 -339 296 -464 82 -145 202 -335 216 -343 8 -4 14
-13 14 -19 0 -7 12 -24 26 -39 29 -31 35 -28 70 26 10 16 27 40 38 52 10 11
18 24 17 27 0 3 9 17 20 30 12 13 21 28 22 33 0 4 5 13 10 18 5 6 18 27 30 47
12 21 50 85 85 142 35 58 63 108 62 112 -1 4 2 10 7 13 11 8 44 59 144 223 79
130 103 159 119 141 9 -10 41 -220 38 -250 -1 -13 -7 -23 -13 -23 -5 0 -3 -6
6 -13 18 -13 18 -14 47 -207 23 -149 46 -339 62 -530 6 -69 14 -135 17 -147 2
-12 2 -31 -2 -43 -6 -19 -12 -21 -108 -18 l-102 3 -12 95 c-24 185 -46 316
-65 385 -21 80 -26 98 -27 105 -1 3 -10 -10 -21 -27 -11 -18 -23 -33 -26 -33
-4 0 0 8 7 17 10 12 10 15 1 9 -7 -4 -21 -24 -31 -44 -11 -20 -31 -48 -44 -63
-13 -14 -36 -47 -52 -75 -15 -27 -34 -58 -43 -68 -12 -14 -13 -17 -3 -11 8 5
1 -9 -16 -31 -17 -21 -61 -90 -99 -153 -71 -117 -99 -146 -128 -135 -18 7 -93
117 -156 229 -19 33 -37 62 -42 63 -4 2 -8 7 -8 12 0 11 -63 114 -72 118 -5 2
-8 10 -8 17 0 8 -6 18 -14 22 -8 4 -24 26 -37 48 -13 22 -31 49 -41 59 -10 11
-18 22 -18 26 0 3 -9 6 -19 6 -13 0 -22 -11 -30 -36 -11 -39 -53 -295 -71
-435 -6 -49 -15 -94 -19 -98 -4 -4 -50 -6 -102 -5 l-94 3 0 70 c0 91 10 190
46 470 48 375 51 396 65 391 12 -5 12 23 -1 43 -6 10 21 237 31 252 6 11 8 11
28 3z m2066 -9 c0 -19 16 -19 23 0 14 34 220 -18 324 -82 81 -51 123 -88 123
-110 0 -23 -97 -133 -117 -133 -9 0 -39 18 -68 40 -62 48 -145 86 -209 95 -26
4 -50 14 -53 22 -5 12 -8 12 -22 0 -9 -8 -36 -17 -61 -21 -153 -22 -283 -160
-320 -341 -13 -61 -7 -200 9 -233 4 -9 21 -43 37 -75 15 -33 37 -65 48 -73 11
-8 17 -14 12 -14 -5 0 2 -9 15 -20 13 -11 35 -29 48 -40 37 -32 72 -47 141
-61 36 -7 68 -18 72 -23 4 -6 11 -6 20 1 7 6 33 14 58 18 53 9 168 59 184 80
7 9 10 49 8 100 -3 71 -7 87 -22 95 -11 6 -69 13 -130 17 -127 7 -123 3 -118
113 l3 64 40 9 c46 10 426 4 443 -7 9 -5 12 -73 12 -236 l0 -228 -49 -44 c-89
-80 -228 -141 -355 -156 -54 -7 -69 -6 -73 5 -4 11 -8 11 -20 1 -33 -27 -180
4 -288 60 -41 22 -95 63 -135 102 -67 67 -122 130 -113 130 2 0 -7 21 -21 46
-67 120 -86 248 -58 386 41 199 160 362 328 450 116 61 284 98 284 63z m-2446
-24 c10 -16 17 -939 9 -1071 l-8 -125 -100 0 -100 0 -8 49 c-10 63 -5 1127 6
1144 10 14 193 17 201 3z"/>
</g>
</svg>
